{
  "accessors": [
    {
      "bufferView": 2,
      "componentType": 5126,
      "count": 4024,
      "max": [
        0.1957560032606125,
        0.13333000242710114,
        1.2357929944992065
      ],
      "min": [
        -0.2148589938879013,
        -0.17949900031089783,
        -0.004135999828577042
      ],
      "type": "VEC3"
    },
    {
      "bufferView": 2,
      "byteOffset": 48288,
      "componentType": 5126,
      "count": 4024,
      "max": [
        0.9998631477355957,
        0.9993221759796143,
        0.9994372129440308
      ],
      "min": [
        -0.9985451102256775,
        -0.9993302822113037,
        -0.9995823502540588
      ],
      "type": "VEC3"
    },
    {
      "bufferView": 1,
      "componentType": 5126,
      "count": 4024,
      "max": [
        0.9949679970741272,
        0.9917730093002319
      ],
      "min": [
        0.0048050000332295895,
        0.005683999974280596
      ],
      "type": "VEC2"
    },
    {
      "bufferView": 0,
      "componentType": 5125,
      "count": 18906,
      "type": "SCALAR"
    }
  ],
  "asset": {
    "extras": {
      "author": "roachfilmopticals (https://sketchfab.com/roachfilmopticals)",
      "license": "CC-BY-4.0 (http://creativecommons.org/licenses/by/4.0/)",
      "source": "https://sketchfab.com/3d-models/nina-b3d788633a05423493ba09f0c153c391",
      "title": "Nina"
    },
    "generator": "Sketchfab-16.59.0",
    "version": "2.0"
  },
  "bufferViews": [
    {
      "buffer": 0,
      "byteLength": 75624,
      "name": "floatBufferViews",
      "target": 34963
    },
    {
      "buffer": 0,
      "byteLength": 32192,
      "byteOffset": 75624,
      "byteStride": 8,
      "name": "floatBufferViews",
      "target": 34962
    },
    {
      "buffer": 0,
      "byteLength": 96576,
      "byteOffset": 107816,
      "byteStride": 12,
      "name": "floatBufferViews",
      "target": 34962
    }
  ],
  "buffers": [
    {
      "byteLength": 204392,
      "uri": "scene.bin"
    }
  ],
  "images": [
    {
      "uri": "textures/Texture2DTexture_Nina.png_baseColor.png"
    }
  ],
  "materials": [
    {
      "doubleSided": true,
      "name": "Texture2DTexture_Nina.png",
      "pbrMetallicRoughness": {
        "baseColorTexture": {
          "index": 0
        },
        "metallicFactor": 0.0,
        "roughnessFactor": 0.8434915419926713
      }
    }
  ],
  "meshes": [
    {
      "name": "Object_0",
      "primitives": [
        {
          "attributes": {
            "NORMAL": 1,
            "POSITION": 0,
            "TEXCOORD_0": 2
          },
          "indices": 3,
          "material": 0,
          "mode": 4
        }
      ]
    }
  ],
  "nodes": [
    {
      "children": [
        1
      ],
      "matrix": [
        1.0,
        0.0,
        0.0,
        0.0,
        0.0,
        2.220446049250313e-16,
        -1.0,
        0.0,
        0.0,
        1.0,
        2.220446049250313e-16,
        0.0,
        0.0,
        0.0,
        0.0,
        1.0
      ],
      "name": "Sketchfab_model"
    },
    {
      "children": [
        2
      ],
      "name": "Nina.obj.cleaner.materialmerger.gles"
    },
    {
      "mesh": 0,
      "name": "Object_2"
    }
  ],
  "samplers": [
    {
      "magFilter": 9729,
      "minFilter": 9987,
      "wrapS": 10497,
      "wrapT": 10497
    }
  ],
  "scene": 0,
  "scenes": [
    {
      "name": "Sketchfab_Scene",
      "nodes": [
        0
      ]
    }
  ],
  "textures": [
    {
      "sampler": 0,
      "source": 0
    }
  ]
}
